<svg xmlns="http://www.w3.org/2000/svg" width="766" height="193" viewBox="0 0 766 193" fill="none"><g clip-path="url(#clip0_986_2172)"><path d="M192.04 27.57H210.66C212.05 27.57 212.74 28.32 212.74 29.83V103.15C212.74 103.74 212.85 104.16 213.07 104.41C213.29 104.66 213.66 104.79 214.18 104.79H255.71C257.27 104.79 258.05 105.42 258.05 106.68V118.63C258.05 119.3 257.83 119.85 257.4 120.27C256.96 120.69 256.36 120.9 255.58 120.9H192.83C191.79 120.9 191.05 120.69 190.62 120.27C190.18 119.85 189.97 119.18 189.97 118.26V29.96C189.97 28.37 190.66 27.57 192.05 27.57H192.04Z" fill="#000000"></path><path d="M292.08 104.61C295.33 107.5 299.39 108.95 304.25 108.95C307.37 108.95 310.26 108.3 312.91 107C315.56 105.7 318.23 103.54 320.92 100.52C321.27 100.18 321.61 100.02 321.96 100.02C322.22 100.02 322.65 100.15 323.26 100.4L332.63 104.17C333.24 104.42 333.54 104.84 333.54 105.43C333.54 105.85 333.37 106.27 333.02 106.69C328.85 112.39 324.38 116.4 319.61 118.7C314.84 121.01 308.89 122.16 301.78 122.16C295.1 122.16 289.07 120.73 283.68 117.88C278.3 115.03 274.09 111.07 271.05 105.99C268.01 100.92 266.49 95.11 266.49 88.57C266.49 81.53 268.05 75.3 271.18 69.89C274.3 64.48 278.54 60.31 283.87 57.38C289.21 54.45 295.04 52.98 301.38 52.98C307.72 52.98 313.83 54.39 318.95 57.19C324.07 60 328.06 64.04 330.93 69.33C333.79 74.61 335.23 80.9 335.23 88.2C335.23 89.29 335.12 90.04 334.9 90.46C334.68 90.88 334.05 91.13 333.01 91.21H288.75C287.71 91.21 287.19 91.88 287.19 93.22C287.19 97.92 288.82 101.71 292.07 104.6L292.08 104.61ZM313.37 80.65C314.32 80.65 314.93 80.55 315.19 80.34C315.45 80.13 315.58 79.65 315.58 78.89C315.58 76.71 315.06 74.53 314.02 72.35C312.98 70.17 311.46 68.37 309.46 66.94C307.46 65.51 305.03 64.8 302.17 64.8C297.83 64.8 294.27 66.27 291.49 69.2C288.71 72.14 287.37 75.91 287.45 80.52L313.36 80.65H313.37Z" fill="#000000"></path><path d="M363.49 122.15C356.98 122.15 351.82 120.45 348 117.06C344.18 113.66 342.27 109.24 342.27 103.79C342.27 96.75 345.61 91.09 352.29 86.81C358.97 82.53 368.17 80.27 379.89 80.02L384.58 79.64C385.1 79.64 385.56 79.49 385.94 79.2C386.33 78.91 386.53 78.47 386.53 77.88V75.24C386.53 71.97 385.57 69.45 383.67 67.69C381.76 65.93 379.03 65.05 375.47 65.05C369.4 65.05 364.88 67.56 361.93 72.6C361.58 73.44 361.02 73.86 360.24 73.86C359.8 73.86 359.41 73.82 359.07 73.73L346.05 70.84C345.27 70.67 344.88 70.21 344.88 69.46C344.88 68.96 345.05 68.33 345.4 67.57C347.48 62.71 351.19 59.06 356.53 56.63C361.87 54.2 368.49 52.98 376.38 52.98C386.71 52.98 394.17 54.8 398.77 58.45C403.37 62.1 405.67 67.28 405.67 73.98V118.12C405.67 119.13 405.5 119.84 405.15 120.26C404.8 120.68 404.15 120.89 403.2 120.89H389.79C388.92 120.89 388.29 120.6 387.9 120.01C387.51 119.43 387.23 118.54 387.06 117.37L386.93 114.6C386.84 113.85 386.5 113.47 385.89 113.47C385.54 113.47 384.89 113.81 383.94 114.48C378.21 119.6 371.4 122.15 363.5 122.15H363.49ZM386.14 89.58C385.88 89.24 385.36 89.08 384.58 89.08L380.93 89.33C375.9 89.58 371.45 90.73 367.59 92.79C363.73 94.85 361.8 97.68 361.8 101.28C361.8 103.79 362.71 105.79 364.53 107.25C366.35 108.72 368.87 109.45 372.08 109.45C376.07 109.45 379.46 108.32 382.23 106.05C385.09 103.87 386.52 101.65 386.52 99.38V91.2C386.52 90.45 386.39 89.9 386.13 89.57L386.14 89.58Z" fill="#000000"></path><path d="M419.2 118.38V56.63C419.2 55.04 419.89 54.24 421.28 54.24H436.51C437.9 54.24 438.59 54.95 438.59 56.38V63.8C438.59 64.14 438.68 64.39 438.85 64.55C439.02 64.72 439.2 64.8 439.37 64.8C439.63 64.8 439.98 64.59 440.41 64.17C443.01 60.82 446.09 58.11 449.65 56.06C453.21 54.01 456.59 52.98 459.8 52.98C463.01 52.98 464.49 53.69 464.49 55.12V69.71C464.49 70.3 464.32 70.76 463.97 71.09C463.62 71.43 463.14 71.51 462.54 71.34C459.76 70.67 456.73 70.33 453.43 70.33C451.26 70.33 449.07 70.85 446.85 71.9C444.64 72.95 442.82 74.33 441.38 76.05C439.95 77.77 439.23 79.51 439.23 81.27V117.99C439.23 119.92 438.1 120.88 435.84 120.88H421.91C420.09 120.88 419.18 120.04 419.18 118.37L419.2 118.38Z" fill="#000000"></path><path d="M475.31 120.33C474.87 119.95 474.66 119.3 474.66 118.38V56.63C474.66 55.04 475.35 54.24 476.74 54.24H492.49C493.79 54.24 494.44 54.95 494.44 56.38V62.54C494.44 63.21 494.66 63.55 495.09 63.55C495.35 63.55 495.65 63.38 496 63.05C499.56 59.78 503.12 57.29 506.68 55.57C510.24 53.85 514.01 52.99 518 52.99C524.33 52.99 529.35 54.79 533.04 58.4C536.73 62.01 538.57 66.83 538.57 72.86V117.88C538.57 119.89 537.53 120.9 535.45 120.9H521C520.04 120.9 519.39 120.71 519.05 120.33C518.7 119.95 518.53 119.3 518.53 118.38V75.87C518.53 73.02 517.73 70.82 516.12 69.27C514.51 67.72 512.15 66.94 509.03 66.94C506.43 66.94 504.02 67.57 501.8 68.83C499.59 70.09 497.22 72.06 494.71 74.74V118C494.71 119.01 494.45 119.74 493.93 120.2C493.41 120.66 492.54 120.89 491.33 120.89H477.4C476.44 120.89 475.75 120.7 475.32 120.32L475.31 120.33Z" fill="#000000"></path><path d="M623.52 77.69C617.05 82.68 608.53 85.17 597.94 85.17H578.41C577.45 85.17 576.98 85.63 576.98 86.55V117.99C576.98 119.92 575.85 120.88 573.59 120.88H556.93C555.89 120.88 555.17 120.67 554.78 120.25C554.39 119.83 554.19 119.2 554.19 118.36V29.96C554.19 28.37 554.88 27.57 556.27 27.57H595.32C602.52 27.57 608.97 28.64 614.65 30.78C620.33 32.92 624.85 36.17 628.19 40.53C631.53 44.89 633.2 50.26 633.2 56.63C633.2 65.68 629.97 72.71 623.5 77.7L623.52 77.69ZM605.49 46.56C602.63 44.38 598.76 43.29 593.9 43.29H579.45C578.58 43.29 577.95 43.46 577.56 43.79C577.17 44.13 576.97 44.71 576.97 45.55V67.06C576.97 67.9 577.1 68.51 577.36 68.88C577.62 69.26 578.1 69.45 578.79 69.45H594.8C599.4 69.45 603.05 68.28 605.74 65.93C608.43 63.58 609.78 60.36 609.78 56.25C609.78 52.14 608.35 48.75 605.48 46.57L605.49 46.56Z" fill="#000000"></path><path d="M645.33 118.38V56.63C645.33 55.04 646.02 54.24 647.41 54.24H662.64C664.03 54.24 664.72 54.95 664.72 56.38V63.8C664.72 64.14 664.81 64.39 664.98 64.55C665.15 64.72 665.33 64.8 665.5 64.8C665.76 64.8 666.11 64.59 666.54 64.17C669.14 60.82 672.22 58.11 675.78 56.06C679.34 54.01 682.72 52.98 685.93 52.98C689.14 52.98 690.62 53.69 690.62 55.12V69.71C690.62 70.3 690.45 70.76 690.1 71.09C689.75 71.43 689.27 71.51 688.67 71.34C685.89 70.67 682.86 70.33 679.56 70.33C677.39 70.33 675.2 70.85 672.98 71.9C670.77 72.95 668.95 74.33 667.51 76.05C666.08 77.77 665.36 79.51 665.36 81.27V117.99C665.36 119.92 664.23 120.88 661.97 120.88H648.04C646.22 120.88 645.31 120.04 645.31 118.37L645.33 118.38Z" fill="#000000"></path><path d="M712.18 117.81C706.93 114.92 702.83 110.87 699.88 105.67C696.93 100.47 695.45 94.56 695.45 87.94C695.45 81.32 696.95 74.99 699.94 69.7C702.94 64.42 707.1 60.31 712.44 57.37C717.78 54.44 723.79 52.97 730.47 52.97C737.15 52.97 743.4 54.46 748.7 57.44C753.99 60.42 758.09 64.55 761 69.83C763.91 75.11 765.36 81.11 765.36 87.82C765.36 94.53 763.88 100.35 760.93 105.55C757.98 110.75 753.86 114.82 748.56 117.75C743.27 120.69 737.19 122.15 730.33 122.15C723.47 122.15 717.42 120.7 712.17 117.81H712.18ZM741.33 103.85C743.8 100.2 745.04 94.78 745.04 87.56C745.04 80.34 743.8 74.75 741.33 71.02C738.86 67.29 735.23 65.42 730.46 65.42C725.69 65.42 722.04 67.29 719.52 71.02C717 74.75 715.75 80.26 715.75 87.56C715.75 94.86 717.01 100.1 719.52 103.78C722.04 107.47 725.68 109.31 730.46 109.31C735.24 109.31 738.86 107.49 741.33 103.84V103.85Z" fill="#000000"></path><path d="M565.58 190.01C562.66 188.25 560.41 185.78 558.82 182.59C557.24 179.4 556.44 175.69 556.44 171.47C556.44 167.25 557.27 163.35 558.93 160.09C560.59 156.84 562.93 154.34 565.95 152.58C568.97 150.82 572.44 149.95 576.39 149.95C579.41 149.95 582.16 150.51 584.66 151.63C587.15 152.75 589.18 154.22 590.75 156.03C592.32 157.84 593.29 159.77 593.68 161.83C593.76 162.06 593.8 162.34 593.8 162.67C593.8 163.08 593.55 163.31 593.05 163.34L585.39 164.46C585.08 164.46 584.87 164.39 584.75 164.26C584.63 164.13 584.54 163.9 584.46 163.56C584.07 161.62 583.16 160.01 581.73 158.74C580.3 157.47 578.44 156.83 576.16 156.83C573.18 156.83 570.92 157.97 569.37 160.25C567.82 162.53 567.05 166.15 567.05 171.12C567.05 176.09 567.86 180.05 569.49 182.33C571.11 184.61 573.45 185.75 576.51 185.75C578.83 185.75 580.69 185.14 582.08 183.93C583.47 182.72 584.38 181.19 584.81 179.36L584.93 177.73C584.97 177.66 584.99 177.54 584.99 177.39C584.99 177.05 584.78 176.88 584.35 176.88H577.33C577.02 176.88 576.79 176.81 576.63 176.66C576.47 176.51 576.4 176.27 576.4 175.93V171.73C576.4 171.21 576.71 170.95 577.33 170.95L592.81 171.01C593.35 171.01 593.77 171.13 594.06 171.37C594.35 171.61 594.5 171.94 594.5 172.35V191.23C594.5 191.49 594.42 191.7 594.27 191.85C594.11 192 593.9 192.07 593.63 192.07H591.77C591.11 192.07 590.61 191.77 590.26 191.17L588.58 187.14C588.46 186.88 588.27 186.9 588 187.2C586.65 188.81 585.03 190.11 583.16 191.12C581.28 192.13 578.84 192.63 575.82 192.63C571.91 192.63 568.5 191.75 565.58 190V190.01Z" fill="#000000"></path><path d="M636.6 191.08C636.6 191.38 636.5 191.62 636.31 191.81C636.11 192 635.88 192.09 635.61 192.09H627.09C626.43 192.09 626.01 191.75 625.81 191.08L619.55 175.39C619.43 175.09 619.26 174.89 619.03 174.77C618.8 174.66 618.43 174.6 617.93 174.6H612.42C612.19 174.6 612.01 174.67 611.9 174.8C611.78 174.93 611.73 175.07 611.73 175.22V190.74C611.73 191.23 611.6 191.57 611.35 191.78C611.1 191.99 610.7 192.09 610.16 192.09H602.79C602.33 192.09 602.01 192 601.83 191.81C601.65 191.62 601.57 191.34 601.57 190.97V151.58C601.57 150.87 601.88 150.52 602.5 150.52H620.59C625.81 150.52 629.85 151.51 632.71 153.49C635.57 155.47 637 158.29 637 161.95C637 164.68 636.25 167 634.74 168.93C633.23 170.86 631.34 172.21 629.06 172.99C628.75 173.1 628.67 173.38 628.83 173.83L636.48 190.58C636.56 190.8 636.6 190.97 636.6 191.08ZM624.77 166.62C625.93 165.7 626.51 164.37 626.51 162.61C626.51 160.85 625.92 159.44 624.74 158.49C623.56 157.54 621.97 157.06 619.96 157.06H612.83C612.4 157.06 612.11 157.13 611.96 157.26C611.8 157.39 611.73 157.63 611.73 157.96V167.04C611.73 167.38 611.79 167.62 611.9 167.77C612.02 167.92 612.23 168 612.54 168H619.67C621.91 168 623.61 167.54 624.77 166.63V166.62Z" fill="#000000"></path><path d="M651.3 190.1C648.3 188.4 646 185.96 644.4 182.79C642.8 179.62 641.99 175.84 641.99 171.47C641.99 167.1 642.8 163.24 644.43 160.01C646.05 156.78 648.36 154.29 651.36 152.56C654.36 150.82 657.87 149.96 661.89 149.96C665.91 149.96 669.35 150.83 672.33 152.56C675.31 154.3 677.61 156.78 679.23 160.01C680.86 163.24 681.67 167.04 681.67 171.41C681.67 175.78 680.87 179.51 679.26 182.7C677.65 185.89 675.36 188.35 672.39 190.07C669.41 191.79 665.91 192.65 661.89 192.65C657.87 192.65 654.3 191.8 651.31 190.1H651.3ZM668.88 182.39C670.33 180.15 671.05 176.53 671.05 171.52C671.05 166.51 670.31 162.67 668.82 160.31C667.33 157.95 665.02 156.78 661.89 156.78C658.76 156.78 656.33 157.96 654.84 160.31C653.35 162.66 652.61 166.4 652.61 171.52C652.61 176.64 653.34 180.15 654.81 182.39C656.28 184.63 658.64 185.75 661.89 185.75C665.14 185.75 667.43 184.63 668.88 182.39Z" fill="#000000"></path><path d="M718.03 188.92C715.05 191.4 710.76 192.65 705.15 192.65C699 192.65 694.58 191.25 691.87 188.45C689.16 185.65 687.81 181.39 687.81 175.67V151.63C687.81 151.29 687.9 151.02 688.07 150.82C688.24 150.62 688.47 150.51 688.74 150.51H697.09C697.67 150.51 697.96 150.85 697.96 151.52V176.9C697.96 179.93 698.63 182.14 699.96 183.54C701.29 184.94 703.27 185.64 705.9 185.64C711.39 185.64 714.14 182.67 714.14 176.73V151.57C714.14 150.86 714.43 150.51 715.01 150.51H721.62C722.2 150.51 722.49 150.85 722.49 151.52V176.68C722.49 182.36 721 186.44 718.02 188.92H718.03Z" fill="#000000"></path><path d="M761.03 172.84C758.15 175.06 754.35 176.17 749.63 176.17H740.93C740.5 176.17 740.29 176.38 740.29 176.79V190.8C740.29 191.66 739.79 192.09 738.78 192.09H731.36C730.9 192.09 730.58 192 730.4 191.81C730.22 191.62 730.14 191.34 730.14 190.97V151.58C730.14 150.87 730.45 150.52 731.07 150.52H748.47C751.68 150.52 754.55 151 757.08 151.95C759.61 152.9 761.62 154.35 763.11 156.29C764.6 158.23 765.34 160.62 765.34 163.46C765.34 167.49 763.9 170.62 761.02 172.85L761.03 172.84ZM753 158.97C751.73 158 750 157.51 747.84 157.51H741.4C741.01 157.51 740.73 157.59 740.56 157.73C740.39 157.88 740.3 158.14 740.3 158.51V168.09C740.3 168.46 740.36 168.74 740.47 168.9C740.59 169.07 740.8 169.15 741.11 169.15H748.24C750.29 169.15 751.91 168.63 753.11 167.58C754.31 166.53 754.91 165.1 754.91 163.26C754.91 161.42 754.27 159.92 753 158.95V158.97Z" fill="#000000"></path><path d="M26.74 27.48L0 129.67H39.9L66.64 27.48H26.74Z" fill="#000000"></path><path d="M123.02 47.09L109.38 98.6H149.29L162.94 47.09H123.02Z" fill="#000000"></path><path d="M84.63 0L46.67 145.44H86.52L124.48 0H84.63Z" fill="#000000"></path></g><defs><clipPath id="clip0_986_2172"><rect width="765.35" height="192.65" fill="#000000"></rect></clipPath></defs></svg>